<?xml version="1.0" encoding="iso-8859-1"?>
<!-- Generator: Adobe Illustrator 19.0.0, SVG Export Plug-In . SVG Version: 6.00 Build 0)  -->
<svg version="1.1" id="Layer_1" xmlns="http://www.w3.org/2000/svg" xmlns:xlink="http://www.w3.org/1999/xlink" x="0px" y="0px"
	 viewBox="0 0 491.52 491.52" style="enable-background:new 0 0 491.52 491.52;" xml:space="preserve">
<circle style="fill:#E05B49;" cx="245.76" cy="245.76" r="245.76"/>
<path style="opacity:0.1;enable-background:new    ;" d="M104.96,104.95v281.6l101.87,101.87c12.683,2.019,25.679,3.1,38.93,3.1
	c135.73,0,245.76-110.03,245.76-245.76c0-13.272-1.085-26.287-3.11-38.988L386.56,104.95H104.96z"/>
<rect x="104.96" y="175.36" style="fill:#E1E6E9;" width="281.6" height="70.4"/>
<rect x="104.96" y="245.76" style="fill:#FFFFFF;" width="281.6" height="70.4"/>
<rect x="104.96" y="316.16" style="fill:#EBF0F3;" width="281.6" height="70.4"/>
<rect x="104.96" y="104.96" style="fill:#64798A;" width="203.597" height="70.4"/>
<rect x="308.531" y="104.96" style="fill:#27A2DB;" width="78.003" height="70.4"/>
<path style="fill:#FFFFFF;" d="M369.75,158.729l-14.924-14.924c4.618-6.373,4.109-15.331-1.626-21.071
	c-6.365-6.355-16.71-6.345-23.065,0c-6.36,6.36-6.36,16.705,0,23.065c3.18,3.175,7.355,4.765,11.53,4.765
	c3.365,0,6.699-1.081,9.542-3.139l14.924,14.924L369.75,158.729z M333.755,142.179c-4.365-4.365-4.365-11.46,0-15.825
	c2.18-2.18,5.045-3.27,7.91-3.27c2.87,0,5.735,1.09,7.915,3.27c4.36,4.365,4.36,11.465,0,15.825
	C345.226,146.538,338.121,146.544,333.755,142.179z"/>
<circle style="fill:#FCD462;" cx="228.895" cy="140.16" r="15.191"/>
<g>
	<circle style="fill:#44C4A1;" cx="273.664" cy="140.16" r="15.191"/>
	<path style="fill:#44C4A1;" d="M162.784,234.004h-39.975c-1.909,0-3.457-1.547-3.457-3.456v-39.975
		c0-1.909,1.547-3.457,3.457-3.457h39.975c1.909,0,3.456,1.547,3.456,3.457v39.975C166.24,232.457,164.692,234.004,162.784,234.004z
		"/>
</g>
<rect x="185.19" y="192.666" style="fill:#E56353;" width="86.262" height="10.24"/>
<rect x="185.19" y="218.214" style="fill:#D5D6DB;" width="184.576" height="10.24"/>
<path style="fill:#27A2DB;" d="M162.784,304.404h-39.975c-1.909,0-3.457-1.547-3.457-3.457v-39.975c0-1.909,1.547-3.456,3.457-3.456
	h39.975c1.909,0,3.456,1.548,3.456,3.456v39.975C166.24,302.857,164.692,304.404,162.784,304.404z"/>
<rect x="185.19" y="263.066" style="fill:#64798A;" width="86.262" height="10.24"/>
<rect x="185.19" y="288.614" style="fill:#D5D6DB;" width="184.576" height="10.24"/>
<path style="fill:#FCD462;" d="M162.784,374.804h-39.975c-1.909,0-3.457-1.547-3.457-3.457v-39.975c0-1.909,1.547-3.457,3.457-3.457
	h39.975c1.909,0,3.456,1.547,3.456,3.457v39.975C166.24,373.257,164.692,374.804,162.784,374.804z"/>
<rect x="185.19" y="333.466" style="fill:#27A2DB;" width="86.262" height="10.24"/>
<rect x="185.19" y="359.014" style="fill:#D5D6DB;" width="184.576" height="10.24"/>
<g>
</g>
<g>
</g>
<g>
</g>
<g>
</g>
<g>
</g>
<g>
</g>
<g>
</g>
<g>
</g>
<g>
</g>
<g>
</g>
<g>
</g>
<g>
</g>
<g>
</g>
<g>
</g>
<g>
</g>
</svg>
