<svg id="color" enable-background="new 0 0 24 24" height="512" viewBox="0 0 24 24" width="512" xmlns="http://www.w3.org/2000/svg"><path d="m17.417 4c-.875 0-1.584.671-1.584 1.5v-3c0-.829-.709-1.5-1.583-1.5s-1.583.671-1.583 1.5v-1c0-.829-.709-1.5-1.584-1.5-.874 0-1.583.671-1.583 1.5v1c0-.83-.707-1.5-1.583-1.5s-1.584.67-1.584 1.5v12.5s-1.706-3-4.222-3c-1.584 0-2.111.535-2.111 1 0 1.262 1.574.75 3.167 4.998 1.592 4.248 3.673 5.982 6.333 6.002h2.639c3.756 0 6.861-1.912 6.861-5.482v-.018-13c0-.829-.709-1.5-1.583-1.5z" fill="#ffcc80"/><g fill="#ffa726"><path d="m16.361 4.39v10.61c-.296 0-.528-.22-.528-.5v-9c0-.44.201-.84.528-1.11z"/><path d="m13.194 1.39v13.11c-.296 0-.527-.22-.527-.5v-11.5c0-.44.2-.84.527-1.11z"/><path d="m10.027.39v13.86c-.295 0-.527-.22-.527-.5v-12.25c0-.44.2-.84.527-1.11z"/></g><path d="m9.5 1.495v.005c0-.002 0-.003 0-.005zm0-.005v.004c0-.001 0-.003 0-.004zm0-.005v.004c0-.002 0-.003 0-.004zm0-.005v.003c0-.001 0-.002 0-.003zm0-.005v.003c0-.001 0-.002 0-.003zm0-.005v.003c0-.001 0-.002 0-.003zm0-.005v.003c0-.001 0-.002 0-.003zm.001-.005v.003c-.001-.001 0-.002 0-.003zm0-.006v.004c0-.001 0-.002 0-.004zm0-.005v.004c0-.001 0-.003 0-.004zm0-.005v.005c0-.002 0-.004 0-.005zm1.499-1.442c-.816.04-1.469.665-1.499 1.441.016-.418.213-.795.526-1.053v13.86c-.295 0-.527-.22-.527-.5v-12.25 1c0-.83-.707-1.5-1.583-1.5s-1.584.67-1.584 1.5v12.5s-1.706-3-4.222-3c-1.584 0-2.111.535-2.111 1 0 1.262 1.574.75 3.167 4.998 1.592 4.248 3.673 5.982 6.333 6.002h1.5z" fill="#deb26f"/><path d="m10.027.39c-.313.258-.51.636-.526 1.053v.005.004.001.004.001.003.002.003.002.003.002.003.002.003.002.004.001.004.001.005 12.25c0 .28.232.5.527.5v-13.858z" fill="#de9121"/><path d="m23.744 21.406-5.28-8.579c-.301-.51-.861-.827-1.464-.827s-1.163.317-1.456.815l-5.271 8.565c-.179.265-.273.581-.273.915 0 .94.768 1.705 1.712 1.705h10.576c.944 0 1.712-.765 1.712-1.705 0-.334-.094-.65-.256-.889z" fill="#f44336"/><path d="m17 22.5c-.553 0-1-.448-1-1s.447-1 1-1 1 .448 1 1-.447 1-1 1z" fill="#fff"/><path d="m18 18.5c0 .552-.447 1-1 1s-1-.448-1-1v-3c0-.552.447-1 1-1s1 .448 1 1z" fill="#fff"/><path d="m17 12c-.603 0-1.163.317-1.456.815l-5.271 8.565c-.179.265-.273.581-.273.915 0 .94.768 1.705 1.712 1.705h5.288v-1.5c-.553 0-1-.448-1-1s.447-1 1-1v-1c-.553 0-1-.448-1-1v-3c0-.552.447-1 1-1z" fill="#d43a2f"/><g fill="#dedede"><path d="m17 20.5c-.553 0-1 .448-1 1s.447 1 1 1z"/><path d="m17 14.5c-.553 0-1 .448-1 1v3c0 .552.447 1 1 1z"/></g></svg>