<svg height="512" viewBox="0 0 128 128" width="512" xmlns="http://www.w3.org/2000/svg"><path d="m105.186 105.65v-9.759a30.11 30.11 0 0 0 -22.1-28.983 30.445 30.445 0 0 0 12.694-31.816c.265-6.561-1.591-13.889-6.382-18.311-6.072-5.6-13.985-5.114-15.542-4.954-1.965-1.388-9.506-5.815-21.089-1.727-10.498 3.711-16.767 13.273-16.767 25.583 0 .158.006.306.008.462a30.422 30.422 0 0 0 12.9 30.763 30.111 30.111 0 0 0 -22.1 28.983v9.759a9 9 0 0 0 1 17.941h76.373a9 9 0 0 0 1-17.941z" fill="#e6e7e8"/><path d="m100.186 102.592v-10.7a29.061 29.061 0 0 0 -29.062-29.063h-18.249a29.061 29.061 0 0 0 -29.061 29.062v10.7a8 8 0 1 1 0 16h76.372a8 8 0 0 1 0-16z" fill="#ffd7e5"/><path d="m50.193 72.762h8.521a8.853 8.853 0 0 1 -5.54-8.2v-1.733h-.3c-.71 0-1.412.034-2.109.084-1.827 1.984-3.516 5.014-1.6 8.45a6.921 6.921 0 0 0 1.028 1.399z" fill="#fa759e"/><path d="m62 64.125a22.518 22.518 0 0 1 -8.826-1.8v2.228a8.872 8.872 0 0 0 17.743 0v-2.267a22.49 22.49 0 0 1 -8.917 1.839z" fill="#fff"/><path d="m73.807 72.762a6.883 6.883 0 0 0 1.022-1.4c1.922-3.44.23-6.468-1.6-8.45-.7-.05-1.4-.084-2.107-.084h-.207v1.728a8.853 8.853 0 0 1 -5.538 8.2z" fill="#fa759e"/><path d="m80.878 30.266a20.483 20.483 0 0 0 -11.164-10.666s-3.259 6.164-12.963 8.059c-5.484 1.07-12.528.758-15.319 6.327-3.977 7.937.691 18.306.691 18.306a22.611 22.611 0 0 0 40.056-.578c.152-.865 2.321-13.485-1.301-21.448z" fill="#fff"/><ellipse cx="74.894" cy="44.173" fill="#ffd7e5" rx="2.008" ry="1.266"/><ellipse cx="49.106" cy="43.892" fill="#ffd7e5" rx="2.008" ry="1.266"/><path d="m62 55.324a6.678 6.678 0 0 1 -5.268-2.474 1 1 0 0 1 1.619-1.175 4.662 4.662 0 0 0 3.649 1.649 4.821 4.821 0 0 0 3.66-1.663 1 1 0 1 1 1.594 1.208 6.86 6.86 0 0 1 -5.254 2.455z" fill="#fa759e"/><path d="m90.791 31.239c.32-6.423-1.495-13.5-6.071-17.723-6.348-5.859-15.007-4.667-15.007-4.667v.123c-.024-.021-7.733-6.472-20.613-1.926-11.206 3.954-16.1 14.111-16.1 24.636 0 .181.007.352.009.53a29.452 29.452 0 0 0 14.491 31.121 29.182 29.182 0 0 1 5.373-.5h.3v-.5a22.69 22.69 0 0 1 -11.053-10.04s-4.668-10.369-.691-18.306c2.791-5.569 9.835-5.257 15.319-6.327 9.7-1.9 12.961-8.055 12.963-8.059a20.487 20.487 0 0 1 11.167 10.665c3.62 7.964 1.453 20.583 1.3 21.449a22.7 22.7 0 0 1 -11.261 10.571v.543h.207a29.163 29.163 0 0 1 5.372.5 29.461 29.461 0 0 0 14.3-32.094z" fill="#d4fbff"/><path d="m92.855 76.762a4 4 0 0 0 -4-4h-53.71a4 4 0 0 0 -4 4v30.632a7.975 7.975 0 0 1 .513 4.767h60.684a7.975 7.975 0 0 1 .513-4.767z" fill="#6dc9f7"/><path d="m35.5 112.161v-30.115a4 4 0 0 1 4-4h45a4 4 0 0 1 4 4v30.115z" fill="#d4fbff"/><path d="m35.5 109.161h53v3h-53z" fill="#fff"/><path d="m74.094 87.077a8.794 8.794 0 0 0 -7.879 4.887l-21.561 1.009-3.542 3.891 3.542 2.476 1.761.083 2.246-1.79 2.315 1.91 2.339-2.111 2.185 2.335 2-2.025 2.939 2.812 1.262-1.214h4.307a8.794 8.794 0 1 0 8.082-12.263z" fill="#fa759e"/><circle cx="75.635" cy="95.871" fill="#d4fbff" r="2.656"/><path d="m92.342 112.161h-60.684a8.012 8.012 0 0 1 -4.687 5.781 3.968 3.968 0 0 0 2.174.65h65.71a3.968 3.968 0 0 0 2.174-.65 8.012 8.012 0 0 1 -4.687-5.781z" fill="#0089ef"/><circle cx="23.814" cy="110.592" fill="#fff" r="8"/><circle cx="100.186" cy="110.592" fill="#fff" r="8"/><g fill="#3a2c60"><path d="m52.026 36.092a2.261 2.261 0 1 0 2.261 2.26 2.26 2.26 0 0 0 -2.261-2.26z"/><path d="m71.974 36.092a2.261 2.261 0 1 0 2.261 2.26 2.261 2.261 0 0 0 -2.261-2.26z"/><path d="m62 49.415a3.575 3.575 0 0 0 3.571-3.571v-1.507a1 1 0 0 0 -2 0v1.507a1.571 1.571 0 0 1 -3.142 0v-1.507a1 1 0 0 0 -2 0v1.507a3.575 3.575 0 0 0 3.571 3.571z"/><path d="m70.254 33.974 4.427.771a1.02 1.02 0 0 0 .173.015 1 1 0 0 0 .17-1.985l-4.424-.775a1 1 0 1 0 -.344 1.971z"/><path d="m49.147 34.76a1.017 1.017 0 0 0 .172-.015l4.427-.771a1 1 0 1 0 -.346-1.974l-4.426.772a1 1 0 0 0 .171 1.985z"/><path d="m43.915 92.3-3.542 3.891a1 1 0 0 0 .166 1.492l3.542 2.477a1.007 1.007 0 0 0 .526.18l1.761.082a1.027 1.027 0 0 0 .67-.217l1.612-1.285 1.69 1.394a1 1 0 0 0 1.307-.029l1.61-1.453 1.516 1.619a1 1 0 0 0 .716.316.987.987 0 0 0 .725-.3l1.31-1.325 2.227 2.131a1 1 0 0 0 1.385 0l.97-.933h3.272a9.8 9.8 0 1 0 .225-9.349l-21 .982a1 1 0 0 0 -.688.327zm22.348.663a1 1 0 0 0 .848-.554 7.793 7.793 0 1 1 -.18 6.537 1 1 0 0 0 -.919-.605h-4.312a1 1 0 0 0 -.693.279l-.571.548-2.236-2.148a1 1 0 0 0 -1.4.019l-1.272 1.286-1.477-1.576a1 1 0 0 0 -1.4-.059l-1.7 1.532-1.651-1.361a1 1 0 0 0 -1.26-.011l-1.952 1.556-1.1-.051-2.371-1.655 2.5-2.744z"/><path d="m75.635 99.528a3.657 3.657 0 1 0 -3.656-3.657 3.661 3.661 0 0 0 3.656 3.657zm0-5.313a1.657 1.657 0 1 1 -1.656 1.656 1.658 1.658 0 0 1 1.656-1.656z"/><path d="m68.625 79.046h6.5a1 1 0 0 0 0-2h-6.5a1 1 0 0 0 0 2z"/><path d="m101.187 101.651v-9.76a30.1 30.1 0 0 0 -22.122-28.985 30.449 30.449 0 0 0 12.716-31.83c.26-6.558-1.6-13.877-6.383-18.3-6.072-5.6-13.984-5.114-15.542-4.954-1.966-1.385-9.507-5.81-21.089-1.722-10.498 3.711-16.767 13.273-16.767 25.582 0 .153.006.3.008.447a30.418 30.418 0 0 0 12.927 30.777 30.1 30.1 0 0 0 -22.121 28.985v9.76a9 9 0 0 0 1 17.941h76.373a9 9 0 0 0 1-17.941zm-2 0a8.981 8.981 0 0 0 -5.332 2.552v-27.441a4.932 4.932 0 0 0 -.335-1.757 27.912 27.912 0 0 1 5.667 16.886zm-49.143-30.776c-1.264-2.261-.86-4.611 1.2-6.991.216-.014.411-.021.61-.029.108 0 .216-.006.324-.008v.71a9.788 9.788 0 0 0 3.144 7.2h-4.662a5.759 5.759 0 0 1 -.616-.882zm-7.044-19.075c-.406-.95-4.218-10.287-.674-17.362 2-4 6.66-4.636 11.165-5.256 1.15-.158 2.339-.321 3.452-.539 8.112-1.583 11.925-6.008 13.174-7.806a19.817 19.817 0 0 1 9.852 9.844c3.3 7.272 1.558 18.856 1.258 20.658a21.587 21.587 0 0 1 -38.227.461zm29.758 12.084c2.058 2.379 2.462 4.729 1.2 6.991a5.759 5.759 0 0 1 -.616.887h-4.613a9.841 9.841 0 0 0 3.188-7.2v-.708l.275.007c.185.003.366.01.566.023zm-13.867 7.878a7.811 7.811 0 0 1 -4.717-7.2v-.781a23.379 23.379 0 0 0 15.743-.032v.813a7.911 7.911 0 0 1 -4.733 7.2zm29.964 2a3 3 0 0 1 3 3v30.438a8.951 8.951 0 0 0 -.668 3.393c0 .192.017.38.028.569h-1.715v-29.116a5.006 5.006 0 0 0 -5-5h-5.125a1 1 0 0 0 0 2h5.125a3 3 0 0 1 3 3v29.115h-51v-29.115a3 3 0 0 1 3-3h24.875a1 1 0 0 0 0-2h-24.875a5.006 5.006 0 0 0 -5 5v29.115h-1.715c.012-.189.029-.377.029-.569a8.951 8.951 0 0 0 -.669-3.393v-30.437a3 3 0 0 1 3-3zm-56.42 39.4h59.13a9.025 9.025 0 0 0 2.977 4.431h-65.084a9.025 9.025 0 0 0 2.977-4.432zm58.888-40.722a4.946 4.946 0 0 0 -2.468-.678h-13.112a7.29 7.29 0 0 0 -.341-7.607 28.015 28.015 0 0 1 15.921 8.285zm-15.023-10.154c-.835-.146-1.683-.251-2.54-.326a23.756 23.756 0 0 0 9.163-9.536c.462-.475 4.735-5.052 7.549-13.959a28.5 28.5 0 0 1 -14.172 23.821zm7.742-48.035c5.854 5.4 6.855 15.7 4.824 22.651a40.648 40.648 0 0 1 -5.208 11.331c.474-4.624.76-12.6-1.869-18.381a21.622 21.622 0 0 0 -11.074-10.938v-9.14c2.273-.104 8.548.067 13.326 4.477zm-34.609-6.262a26.012 26.012 0 0 1 8.689-1.579 18.457 18.457 0 0 1 10.591 3.057v9.862c-.651 1.029-4.045 5.767-12.153 7.351-1.059.206-2.168.358-3.342.52-4.784.658-10.206 1.4-12.68 6.341-2.851 5.69-1.553 12.417-.4 16.2-2.52-2.285-6.138-7.422-6.138-18.059 0-11.423 5.77-20.282 15.433-23.693zm-14.89 37.211c2.42 5.324 5.841 7.359 6.9 7.881a23.779 23.779 0 0 0 8.789 8.883c-.853.074-1.7.179-2.528.324a28.585 28.585 0 0 1 -13.161-17.088zm14.057 18.955a7.292 7.292 0 0 0 -.34 7.607h-13.115a4.943 4.943 0 0 0 -2.468.678 28 28 0 0 1 15.923-8.285zm-18.12 10.845a4.942 4.942 0 0 0 -.335 1.758v27.442a8.981 8.981 0 0 0 -5.331-2.552v-9.76a27.916 27.916 0 0 1 5.666-16.888zm-13.666 35.592a7 7 0 1 1 7 7 7.008 7.008 0 0 1 -7-7zm83.373 7a7 7 0 1 1 7-7 7.008 7.008 0 0 1 -7 7z"/></g></svg>