<svg id="Layer_2" height="512" viewBox="0 0 512 512" width="512" xmlns="http://www.w3.org/2000/svg" data-name="Layer 2"><path d="m80 48h-56a16 16 0 0 0 -16 16v424a16 16 0 0 0 16 16h416a16 16 0 0 0 16-16v-24z" fill="#443c3c"/><path d="m104 464a56 56 0 0 1 -56-56v-344a16 16 0 0 1 16-16h376a16 16 0 0 1 16 16v344c0 30.928 17.072 56 48 56z" fill="#fff"/><path d="m456 64a16 16 0 0 0 -16-16h-376a16 16 0 0 0 -16 16v88h408z" fill="#f75252"/><g opacity=".2"><path d="m456 72.4v-8.4a16 16 0 0 0 -16-16h-376a16 16 0 0 0 -16 16v258.377c148.36-220.697 364.051-246.9 408-249.977z" fill="#fff"/></g><circle cx="148" cy="100" fill="#fff" r="28"/><circle cx="380" cy="100" fill="#fff" r="28"/><path d="m160 104h-16v-80a8.009 8.009 0 0 0 -8-8h-32a8.009 8.009 0 0 0 -8 8v24h-16v-24a24.027 24.027 0 0 1 24-24h32a24.027 24.027 0 0 1 24 24z" fill="#494040"/><path d="m392 104h-16v-80a8.009 8.009 0 0 0 -8-8h-32a8.009 8.009 0 0 0 -8 8v24h-16v-24a24.027 24.027 0 0 1 24-24h32a24.027 24.027 0 0 1 24 24z" fill="#494040"/><path d="m368 336h-64v13.311a10.689 10.689 0 0 1 -10.689 10.689h-5.311a16 16 0 0 0 -16 16v64h128v-64a16 16 0 0 0 -16-16h-5.311a10.689 10.689 0 0 1 -10.689-10.689z" fill="#dee0e0"/><path d="m290.334 320h107.331v16h-107.331z" fill="#935d06" transform="matrix(.447 -.894 .894 .447 -103.222 488.972)"/><path d="m424 176s-48 16-64 56-8 80-8 80 36.733-17.467 56-56c8-16 16-80 16-80z" fill="#f9b00d"/><path d="m120 384v-154a30 30 0 0 1 30-30h122v186a30 30 0 0 1 -30 30" fill="#17c4e0"/><path d="m120 416a30 30 0 0 1 -30-30v-2h126v2a30 30 0 0 0 30 30z" fill="#0ba7b7"/><path d="m270 200a30 30 0 0 1 30 30v2h-28z" fill="#0ba7b7"/><g fill="#fff"><path d="m152 240h88v16h-88z"/><path d="m152 272h88v16h-88z"/><path d="m152 304h88v16h-88z"/><path d="m152 336h48v16h-48z"/></g><g opacity=".6"><path d="m392 216h24v16h-24z" fill="#fff"/></g><g opacity=".6"><path d="m386 246.95h15.999v20.1h-15.999z" fill="#fff" transform="matrix(.1 -.995 .995 .1 99.071 623.472)"/></g><path d="m336 392c-24 16-64 0-64 0v48h128v-56s-40-8-64 8z" fill="#ad7410"/></svg>