<?xml version="1.0" encoding="iso-8859-1"?>
<!-- Generator: Adobe Illustrator 19.0.0, SVG Export Plug-In . SVG Version: 6.00 Build 0)  -->
<svg version="1.1" id="Capa_1" xmlns="http://www.w3.org/2000/svg" xmlns:xlink="http://www.w3.org/1999/xlink" x="0px" y="0px"
	 viewBox="0 0 512 512" style="enable-background:new 0 0 512 512;" xml:space="preserve">
<rect x="225.055" y="451.05" style="fill:#18C9B5;" width="120.029" height="50.637"/>
<rect x="223.174" y="451.05" style="fill:#008878;" width="121.9" height="28.127"/>
<polygon style="fill:#FFFFFF;" points="52.513,165.978 7.502,165.978 7.502,451.048 504.498,451.048 504.498,165.978 
	390.095,165.978 "/>
<polygon style="fill:#18C9B5;" points="7.502,413.538 7.502,451.048 504.498,451.048 504.498,413.538 390.095,413.538 "/>
<polygon style="fill:#008878;" points="7.502,432.293 7.502,451.048 504.498,451.048 504.498,432.293 390.095,432.293 "/>
<g>
	<polygon style="fill:#E3F0FB;" points="247.56,411.663 213.802,411.663 410.725,164.103 444.484,164.103 	"/>
	<polygon style="fill:#E3F0FB;" points="155.663,413.538 7.502,413.538 7.502,165.978 361.963,165.978 	"/>
</g>
<polygon style="fill:#8CA1B6;" points="195.048,310.388 195.048,338.52 375.092,338.52 375.092,308.513 "/>
<polygon style="fill:#FFFFFF;" points="180.044,96.586 180.044,8.44 390.095,8.44 390.095,308.513 180.044,308.513 180.044,233.495 
	"/>
<polygon style="fill:#677E89;" points="232.557,342.271 232.557,368.527 337.582,368.527 337.582,340.396 "/>
<rect x="75.018" y="98.464" style="fill:#FF6969;" width="135.033" height="135.033"/>
<polygon style="fill:#DD2323;" points="95.648,233.495 75.018,233.495 75.018,98.462 178.169,98.462 "/>
<g>
	<rect x="30.007" y="406.039" style="fill:#FFFFFF;" width="15.004" height="15.004"/>
	<rect x="60.015" y="406.039" style="fill:#FFFFFF;" width="15.004" height="15.004"/>
	<rect x="90.022" y="406.039" style="fill:#FFFFFF;" width="15.004" height="15.004"/>
</g>
<rect x="120.029" y="406.039" width="386.344" height="15.004"/>
<polygon style="fill:#FFFFFF;" points="180.044,158.476 150.037,158.476 150.037,128.469 135.033,128.469 135.033,158.476 
	105.026,158.476 105.026,173.48 135.033,173.48 135.033,203.487 150.037,203.487 150.037,173.48 180.044,173.48 "/>
<polygon style="fill:#FF6969;" points="367.59,42.198 356.337,42.198 356.337,30.945 341.333,30.945 341.333,42.198 330.081,42.198 
	330.081,57.201 341.333,57.201 341.333,68.454 356.337,68.454 356.337,57.201 367.59,57.201 "/>
<rect x="202.549" y="30.945" width="15.004" height="15.004"/>
<rect x="202.549" y="60.952" style="fill:#FF6969;" width="82.52" height="15.004"/>
<rect x="232.557" y="90.962" width="90.022" height="15.004"/>
<rect x="232.557" y="120.969" style="fill:#FF6969;" width="15.004" height="15.004"/>
<rect x="262.564" y="120.969" width="82.52" height="15.004"/>
<rect x="232.557" y="150.976" width="45.011" height="15.004"/>
<rect x="292.571" y="150.976" style="fill:#FF6969;" width="30.007" height="15.004"/>
<rect x="232.557" y="180.984" width="30.007" height="15.004"/>
<rect x="307.575" y="271.006" width="60.015" height="15.004"/>
<g>
	<rect x="352.586" y="233.497" style="fill:#FF6969;" width="15.004" height="15.004"/>
	<rect x="322.579" y="233.497" style="fill:#FF6969;" width="15.004" height="15.004"/>
	<rect x="292.571" y="233.497" style="fill:#FF6969;" width="15.004" height="15.004"/>
</g>
<path d="M512,458.549V158.476H397.597V0.938H172.542V90.96H67.516v150.037h105.026v75.018h15.004v30.007h37.509v30.007h120.029
	v-30.007h37.509v-30.007h15.004V173.48h99.399v270.066H15.004V173.48h37.509v-15.004H0v300.073h217.553v37.509h-30.007v15.004
	h194.737v-15.004h-29.696v-37.509H512z M82.52,225.993V105.963h120.029v120.029H82.52z M330.081,361.026h-90.022v-15.004h90.022
	V361.026z M367.59,331.018h-165.04v-15.004h165.04V331.018z M382.593,301.011H187.546v-60.015h30.007V90.96h-30.007V15.941h195.048
	V301.011z M337.582,496.059H232.557v-37.509h45.011v7.502h15.004v-7.502h45.011V496.059z"/>
<g>
</g>
<g>
</g>
<g>
</g>
<g>
</g>
<g>
</g>
<g>
</g>
<g>
</g>
<g>
</g>
<g>
</g>
<g>
</g>
<g>
</g>
<g>
</g>
<g>
</g>
<g>
</g>
<g>
</g>
</svg>
