<svg height="512" viewBox="0 0 60 60" width="512" xmlns="http://www.w3.org/2000/svg"><g id="Page-1" fill="none" fill-rule="evenodd"><g id="053---Edit-Layers" fill-rule="nonzero"><path id="Shape" d="m33 5v2h-21c-2.209139 0-4 1.790861-4 4v22h-3c-2.209139 0-4-1.790861-4-4v-24c0-2.209139 1.790861-4 4-4h24c2.209139 0 4 1.790861 4 4z" fill="#673ab7"/><path id="Shape" d="m5 11v22h3v-22c0-2.209139 1.790861-4 4-4h-3c-2.209139 0-4 1.790861-4 4z" fill="#4527a0"/><path id="Shape" d="m29 1h-3c2.209139 0 4 1.790861 4 4v2h3v-2c0-2.209139-1.790861-4-4-4z" fill="#4527a0"/><path id="Shape" d="m40 11v2h-21c-2.209139 0-4 1.790861-4 4v22h-3c-2.209139 0-4-1.790861-4-4v-24c0-2.209139 1.790861-4 4-4h24c2.209139 0 4 1.790861 4 4z" fill="#9d27b0"/><path id="Shape" d="m12 17v22h3v-22c0-2.209139 1.790861-4 4-4h-3c-2.209139 0-4 1.790861-4 4z" fill="#6a1b9a"/><path id="Shape" d="m36 7h-3c2.209139 0 4 1.790861 4 4v2h3v-2c0-2.209139-1.790861-4-4-4z" fill="#6a1b9a"/><rect id="Rectangle-path" fill="#e91e63" height="32" rx="4" width="32" x="15" y="13"/><path id="Shape" d="m43 13h-3c2.209139 0 4 1.790861 4 4v24c0 2.209139-1.790861 4-4 4h3c2.209139 0 4-1.790861 4-4v-24c0-2.209139-1.790861-4-4-4z" fill="#ad1457"/><path id="Shape" d="m43.69 46.51-.71.71-2.12 2.12v.01l-15.56-15.56c.7814829.7814829 2.048517.7814828 2.8299999-.0000001s.781483-2.048517.0000001-2.8299999c.0174207.0195386.0376402.0363883.06.05z" fill="#ff9801"/><path id="Shape" d="m52.88 44.39-8.49 8.49-3.53-3.53v-.01l2.12-2.12.71-.71 5.65-5.65z" fill="#cfd8dc"/><path id="Shape" d="m49.34 40.86-2.83 2.83-15.5-15.5c-.0136117-.0223598-.0304614-.0425793-.05-.06.5055308.5055308 1.242358.7029631 1.9329259.5179259.690568-.1850371 1.2299629-.724432 1.415-1.415.1850372-.6905679-.0123951-1.4273951-.5179259-1.9329259z" fill="#ff9801"/><path id="Shape" d="m57.83 55-2.83 2.83c-1.5642825 1.5597839-4.0957175 1.5597839-5.66 0l-4.95-4.95 8.49-8.49 4.95 4.95c1.5597839 1.5642825 1.5597839 4.0957175 0 5.66z" fill="#e91e63"/><path id="Shape" d="m57.83 49.34-4.95-4.95-1.5 1.5 3.45 3.45c1.5597839 1.5642825 1.5597839 4.0957175 0 5.66l-2.83 2.83c-.3786685.3793216-.8300175.6782936-1.327.879 1.4880548.6016969 3.1916659.2556201 4.327-.879l2.83-2.83c1.5597839-1.5642825 1.5597839-4.0957175 0-5.66z" fill="#ad1457"/><circle id="Oval" cx="52.172" cy="55" fill="#f5f5f5" r="1"/><path id="Shape" d="m49.343 53.172c-.2651948-.0000566-.5195073-.1054506-.707-.293l-2.121-2.122c-.2599566-.2510745-.3642126-.6228779-.2726972-.9725073.0915155-.3496295.3645604-.6226744.7141899-.7141899.3496294-.0915154.7214328.0127406.9725073.2726972l2.121 2.122c.2859079.2859943.3714219.7160366.216678 1.0896546-.1547439.3736179-.5192821.6172591-.923678.6173454z" fill="#f5f5f5"/><path id="Shape" d="m33.79 28.13c-.3751365.3755541-.8841815.5865733-1.415.5865733s-1.0398635-.2110192-1.415-.5865733c.0195386.0174207.0363883.0376402.05.06.6795536.7935206.6338645 1.9763883-.1048736 2.7151264s-1.9216058.7844272-2.7151264.1048736c-.0223598-.0136117-.0425793-.0304614-.06-.05.7814829.7814829.7814828 2.048517-.0000001 2.8299999s-2.048517.781483-2.8299999.0000001l-3.22-7.69c1.9237589-.5903963 3.4296037-2.0962411 4.02-4.02l7.69 3.22c.3755541.3751365.5865733.8841815.5865733 1.415s-.2110192 1.0398635-.5865733 1.415z" fill="#ffe0b2"/><path id="Shape" d="m26.1 22.08c-.5903963 1.9237589-2.0962411 3.4296037-4.02 4.02l-1.94-4.65c-.1580752-.3748238-.0733416-.8080493.2143046-1.0956954.2876461-.2876462.7208716-.3723798 1.0956954-.2143046z" fill="#37474f"/><path id="Shape" d="m46.51 43.69-2.82 2.82-15.5-15.5c.7935206.6795536 1.9763883.6338645 2.7151264-.1048736s.7844272-1.9216058.1048736-2.7151264z" fill="#ff5722"/><g fill="#000"><path id="Shape" d="m33.078 34.492c-.3923789-.3789722-1.0160848-.3735524-1.4018186.0121814s-.3911536 1.0094397-.0121814 1.4018186l8.486 8.485c.3923789.3789722 1.0160848.3735524 1.4018186-.0121814s.3911536-1.0094397.0121814-1.4018186z"/><path id="Shape" d="m35.907 31.663c-.3907415-.3904653-1.0240347-.3902415-1.4145.0005s-.3902415 1.0240347.0005 1.4145l8.485 8.484c.2510745.2599566.6228779.3642126.9725073.2726972.3496295-.0915155.6226744-.3645604.7141899-.7141899.0915154-.3496294-.0127406-.7214328-.2726972-.9725073z"/><path id="Shape" d="m53.586 43.687-3.535-3.535-2.051-2.052v-21.1c-.0033061-2.7600532-2.2399468-4.9966939-5-5h-2v-1c-.0033061-2.76005315-2.2399468-4.99669388-5-5h-2v-1c-.0033061-2.76005315-2.2399468-4.99669388-5-5h-24c-2.76005315.00330612-4.99669388 2.23994685-5 5v24c.00330612 2.7600532 2.23994685 4.9966939 5 5h2v1c.00330612 2.7600532 2.23994685 4.9966939 5 5h2v1c.0033061 2.7600532 2.2399468 4.9966939 5 5h17.1l7.586 7.586 4.949 4.949c1.9526137 1.9525763 5.1183863 1.9525763 7.071 0l2.829-2.828c1.9492694-1.9539823 1.9492694-5.1170177 0-7.071zm-7.068 5.654-2.119 2.119-2.122-2.122 1.414-1.414c.3789722-.3923789.3735524-1.0160848-.0121814-1.4018186s-1.0094397-.3911536-1.4018186-.0121814l-1.414 1.414-12.863-12.853c.9991564-.4577382 1.6590076-1.4351669 1.71-2.533 1.5255969-.0841716 2.7442103-1.3014932 2.83-2.827 1.0971103-.0518273 2.0733972-.7120751 2.53-1.711l12.859 12.858-2.829 2.829c-.2597729.2512596-.3637612.6231337-.2719978.9726946.0917635.3495608.3649986.6224097.7146889.7136787s.721417-.0132453.9723089-.2733733l2.828-2.829 2.122 2.122zm-25.452-28.278 3.734 1.561c-.4687422.9401024-1.2303298 1.702392-2.17 2.172zm4.234 4.237c.5508348-.5541631 1.0054024-1.1963032 1.345-1.9l6.509 2.725c.3044916.3908422.272419.9467681-.075 1.3-.3947318.3790637-1.0182682.3790637-1.413 0-.2525868-.2527654-.6208353-.3515768-.96603-.259213-.3451946.0923639-.6148921.3618707-.7075.707s.0059432.7134476.25853.966213c.3789722.3923789.3735524 1.0160848-.0121814 1.4018186s-1.0094397.3911536-1.4018186.0121814c-.2510745-.2599566-.6228779-.3642126-.9725073-.2726972-.3496295.0915155-.6226744.3645604-.7141899.7141899-.0915154.3496294.0127406.7214328.2726972.9725073.3648752.3691849.3830534.9573658.0416726 1.3483781-.3413807.3910122-.9266366.4523534-1.3416726.1406219l-2.723-6.512c.7033311-.3397926 1.3453886-.7939638 1.9-1.344zm-20.3 6.7c-1.65685425 0-3-1.3431458-3-3v-24c0-1.65685425 1.34314575-3 3-3h24c1.6568542 0 3 1.34314575 3 3v1h-20c-2.76005315.00330612-4.99669388 2.23994685-5 5v21zm7 6c-1.6568542 0-3-1.3431458-3-3v-24c0-1.65685425 1.3431458-3 3-3h24c1.6568542 0 3 1.34314575 3 3v1h-20c-2.7600532.0033061-4.9966939 2.2399468-5 5v21zm7 6c-1.6568542 0-3-1.3431458-3-3v-24c0-1.6568542 1.3431458-3 3-3h24c1.6568542 0 3 1.3431458 3 3v19.1l-11.5-11.5c-.1019492-.0838877-.211412-.1582019-.327-.222l-12.326-5.157c-.7502473-.3217759-1.6207565-.1552857-2.1993143.4206323s-.7490273 1.4456567-.4306857 2.1973677l5.158 12.322v.007c.0544068.1178422.1273297.2262136.216.321l9.509 9.511zm38.122 10.293-2.829 2.828c-1.1873934 1.1330821-3.0556066 1.1330821-4.243 0l-4.242-4.242 1.414-1.415 1.414 1.415c.3923789.3789722 1.0160848.3735524 1.4018186-.0121814s.3911536-1.0094397.0121814-1.4018186l-1.414-1.415 4.243-4.242 4.243 4.242c1.169058 1.1727537 1.169058 3.0702463 0 4.243z"/></g></g></g></svg>