<svg height="512" viewBox="0 0 60 60" width="512" xmlns="http://www.w3.org/2000/svg"><g id="Page-1" fill="none" fill-rule="evenodd"><g id="048---Edit-Selection" fill-rule="nonzero"><rect id="Rectangle-path" fill="#e91e63" height="10" rx="2" width="10" x="1" y="1"/><path id="Shape" d="m9 1h-3c1.1045695 0 2 .8954305 2 2v6c0 1.1045695-.8954305 2-2 2h3c1.1045695 0 2-.8954305 2-2v-6c0-1.1045695-.8954305-2-2-2z" fill="#ad1457"/><rect id="Rectangle-path" fill="#e91e63" height="10" rx="2" width="10" x="1" y="49"/><path id="Shape" d="m9 49h-3c1.1045695 0 2 .8954305 2 2v6c0 1.1045695-.8954305 2-2 2h3c1.1045695 0 2-.8954305 2-2v-6c0-1.1045695-.8954305-2-2-2z" fill="#ad1457"/><rect id="Rectangle-path" fill="#e91e63" height="10" rx="2" width="10" x="49" y="49"/><path id="Shape" d="m57 49h-3c1.1045695 0 2 .8954305 2 2v6c0 1.1045695-.8954305 2-2 2h3c1.1045695 0 2-.8954305 2-2v-6c0-1.1045695-.8954305-2-2-2z" fill="#ad1457"/><path id="Shape" d="m23.18 33.99c.7814829-.7814829.7814829-2.0485171 0-2.83s-2.0485171-.7814829-2.83 0l20.51-20.5 2.83 2.83z" fill="#f44335"/><path id="Shape" d="m28.84 39.65c.7814829-.7814829.7814829-2.0485171 0-2.83s-2.0485171-.7814829-2.83 0c.0195386-.0174207.0363883-.0376402.05-.06l20.45-20.45 2.84 2.84z" fill="#f44335"/><path id="Shape" d="m52.88 15.61-3.53 3.54-8.49-8.49 3.53-3.54z" fill="#cfd8dc"/><path id="Shape" d="m57.83 10.66-4.95 4.95-8.49-8.49 4.95-4.95c1.5642825-1.55978389 4.0957175-1.55978389 5.66 0l2.83 2.83c1.5597839 1.56428251 1.5597839 4.09571749 0 5.66z" fill="#e91e63"/><path id="Shape" d="m57.83 5-2.83-2.83c-1.1353341-1.13462014-2.8389452-1.4806969-4.327-.879.4969825.20070644.9483315.49967838 1.327.879l2.83 2.83c1.5597839 1.56428251 1.5597839 4.09571749 0 5.66l-3.45 3.45 1.5 1.5 4.95-4.95c1.5597839-1.56428251 1.5597839-4.09571749 0-5.66z" fill="#ad1457"/><path id="Shape" d="m26.06 36.76c.7057226-.8034897.6545045-2.0199827-.1162595-2.7613078s-1.9883287-.7451545-2.7637405-.0086922l20.51-20.5 2.82 2.82z" fill="#ff9801"/><circle id="Oval" cx="52.172" cy="5" fill="#f5f5f5" r="1"/><path id="Shape" d="m47.222 10.95c-.4043959-.0000863-.7689341-.2437275-.923678-.6173454-.1547439-.37361798-.0692299-.80366035.216678-1.0896546l2.121-2.122c.2510745-.25995658.6228779-.3642126.9725073-.27269716.3496295.09151544.6226744.3645604.7141899.71418984.0915154.34962943-.0127406.72143285-.2726972.97250732l-2.121 2.122c-.1874927.1875494-.4418052.2929434-.707.293z" fill="#f5f5f5"/><path id="Shape" d="m21.15 42.87-4.65 1.94c-.3748238.1580752-.8080493.0733416-1.0956954-.2143046-.2876462-.2876461-.3723798-.7208716-.2143046-1.0956954l1.94-4.65c1.9237589.5903963 3.4296037 2.0962411 4.02 4.02z" fill="#37474f"/><path id="Shape" d="m28.84 39.65-7.69 3.22c-.5903963-1.9237589-2.0962411-3.4296037-4.02-4.02l3.22-7.69c.5055308-.5055308 1.242358-.7029631 1.9329259-.5179259.690568.1850371 1.2299629.724432 1.415 1.415.1850372.6905679-.0123951 1.4273951-.5179259 1.9329259.7754118-.7364623 1.9929765-.7326329 2.7637405.0086922s.8219821 1.9578181.1162595 2.7613078c-.0136117.0223598-.0304614.0425793-.05.06.7814829-.7814829 2.0485171-.7814829 2.83 0s.7814829 2.0485171 0 2.83z" fill="#ffe0b2"/><g fill="#000"><path id="Shape" d="m3 12h2v1c0 .5522847.44771525 1 1 1s1-.4477153 1-1v-1h2c1.6568542 0 3-1.3431458 3-3v-2h1c.5522847 0 1-.44771525 1-1s-.4477153-1-1-1h-1v-2c0-1.65685425-1.3431458-3-3-3h-6c-1.65685425 0-3 1.34314575-3 3v6c0 1.6568542 1.34314575 3 3 3zm-1-9c0-.55228475.44771525-1 1-1h6c.55228475 0 1 .44771525 1 1v6c0 .55228475-.44771525 1-1 1h-6c-.55228475 0-1-.44771525-1-1z"/><path id="Shape" d="m3 60h6c1.6568542 0 3-1.3431458 3-3v-2h1c.5522847 0 1-.4477153 1-1s-.4477153-1-1-1h-1v-2c0-1.6568542-1.3431458-3-3-3h-2v-1c0-.5522847-.44771525-1-1-1s-1 .4477153-1 1v1h-2c-1.65685425 0-3 1.3431458-3 3v6c0 1.6568542 1.34314575 3 3 3zm-1-9c0-.5522847.44771525-1 1-1h6c.55228475 0 1 .4477153 1 1v6c0 .5522847-.44771525 1-1 1h-6c-.55228475 0-1-.4477153-1-1z"/><path id="Shape" d="m57 48h-2v-1c0-.5522847-.4477153-1-1-1s-1 .4477153-1 1v1h-2c-1.6568542 0-3 1.3431458-3 3v2h-1c-.5522847 0-1 .4477153-1 1s.4477153 1 1 1h1v2c0 1.6568542 1.3431458 3 3 3h6c1.6568542 0 3-1.3431458 3-3v-6c0-1.6568542-1.3431458-3-3-3zm1 9c0 .5522847-.4477153 1-1 1h-6c-.5522847 0-1-.4477153-1-1v-6c0-.5522847.4477153-1 1-1h6c.5522847 0 1 .4477153 1 1z"/><path id="Shape" d="m19 7c.5522847 0 1-.44771525 1-1s-.4477153-1-1-1h-2c-.5522847 0-1 .44771525-1 1s.4477153 1 1 1z"/><path id="Shape" d="m25 7c.5522847 0 1-.44771525 1-1s-.4477153-1-1-1h-2c-.5522847 0-1 .44771525-1 1s.4477153 1 1 1z"/><path id="Shape" d="m31 7c.5522847 0 1-.44771525 1-1s-.4477153-1-1-1h-2c-.5522847 0-1 .44771525-1 1s.4477153 1 1 1z"/><path id="Shape" d="m37 7c.5522847 0 1-.44771525 1-1s-.4477153-1-1-1h-2c-.5522847 0-1 .44771525-1 1s.4477153 1 1 1z"/><path id="Shape" d="m17 53c-.5522847 0-1 .4477153-1 1s.4477153 1 1 1h2c.5522847 0 1-.4477153 1-1s-.4477153-1-1-1z"/><path id="Shape" d="m23 53c-.5522847 0-1 .4477153-1 1s.4477153 1 1 1h2c.5522847 0 1-.4477153 1-1s-.4477153-1-1-1z"/><path id="Shape" d="m29 53c-.5522847 0-1 .4477153-1 1s.4477153 1 1 1h2c.5522847 0 1-.4477153 1-1s-.4477153-1-1-1z"/><path id="Shape" d="m35 53c-.5522847 0-1 .4477153-1 1s.4477153 1 1 1h2c.5522847 0 1-.4477153 1-1s-.4477153-1-1-1z"/><path id="Shape" d="m41 53c-.5522847 0-1 .4477153-1 1s.4477153 1 1 1h2c.5522847 0 1-.4477153 1-1s-.4477153-1-1-1z"/><path id="Shape" d="m6 40c-.55228475 0-1 .4477153-1 1v2c0 .5522847.44771525 1 1 1s1-.4477153 1-1v-2c0-.5522847-.44771525-1-1-1z"/><path id="Shape" d="m7 35c0-.5522847-.44771525-1-1-1s-1 .4477153-1 1v2c0 .5522847.44771525 1 1 1s1-.4477153 1-1z"/><path id="Shape" d="m7 29c0-.5522847-.44771525-1-1-1s-1 .4477153-1 1v2c0 .5522847.44771525 1 1 1s1-.4477153 1-1z"/><path id="Shape" d="m7 23c0-.5522847-.44771525-1-1-1s-1 .4477153-1 1v2c0 .5522847.44771525 1 1 1s1-.4477153 1-1z"/><path id="Shape" d="m7 17c0-.5522847-.44771525-1-1-1s-1 .4477153-1 1v2c0 .5522847.44771525 1 1 1s1-.4477153 1-1z"/><path id="Shape" d="m54 40c-.5522847 0-1 .4477153-1 1v2c0 .5522847.4477153 1 1 1s1-.4477153 1-1v-2c0-.5522847-.4477153-1-1-1z"/><path id="Shape" d="m55 35c0-.5522847-.4477153-1-1-1s-1 .4477153-1 1v2c0 .5522847.4477153 1 1 1s1-.4477153 1-1z"/><path id="Shape" d="m55 29c0-.5522847-.4477153-1-1-1s-1 .4477153-1 1v2c0 .5522847.4477153 1 1 1s1-.4477153 1-1z"/><path id="Shape" d="m55 23c0-.5522847-.4477153-1-1-1s-1 .4477153-1 1v2c0 .5522847.4477153 1 1 1s1-.4477153 1-1z"/><path id="Shape" d="m41.563 15.6c-.3904999-.3903819-1.0235001-.3903819-1.414 0l-13.434 13.439c-.2599566.2510745-.3642126.6228779-.2726972.9725073.0915155.3496295.3645604.6226744.7141899.7141899.3496294.0915154.7214328-.0127406.9725073-.2726972l13.434-13.435c.1886973-.1876882.2947915-.4428544.2947915-.709s-.1060942-.5213118-.2947915-.709z"/><path id="Shape" d="m42.978 18.433-13.435 13.435c-.2599566.2510745-.3642126.6228779-.2726972.9725073.0915155.3496295.3645604.6226744.7141899.7141899.3496294.0915154.7214328-.0127406.9725073-.2726972l13.435-13.435c.3789722-.3923789.3735524-1.0160848-.0121814-1.4018186s-1.0094397-.3911536-1.4018186-.0121814z"/><path id="Shape" d="m14.694 45.306c.3741679.3753427.8820166.5868265 1.412.588.2693125-.0000775.5357667-.055206.783-.162l12.334-5.161c.024-.01.3-.2.321-.216l.007-.006 24.035-24.036 4.949-4.949c1.9492694-1.95398226 1.9492694-5.11701774 0-7.071l-2.828-2.828c-1.9539823-1.94926942-5.1170177-1.94926942-7.071 0l-4.949 4.949-24.034 24.033c-.083558.1021955-.1578513.2116275-.222.327l-5.16 12.326c-.326847.7522667-.1589272 1.6279905.423 2.206zm5.658-5.658c-.5561472-.5501906-1.1999311-1.0040498-1.905-1.343l2.724-6.51c.3908422-.3044916.9467681-.272419 1.3.075.3903819.3904999.3903819 1.0235001 0 1.414-.3910176.3915699-.3905699 1.0259824.001 1.417s1.0259824.3905699 1.417-.001c.3951446-.3780366 1.0178554-.3780366 1.413 0 .1875494.1874927.2929434.4418052.293.707.001124.2651352-.1044714.5195734-.293.706-.3910176.3904653-.3914653 1.0239824-.001 1.415s1.0239824.3914653 1.415.001c.3691849-.3648752.9573658-.3830534 1.3483781-.0416726.3910122.3413807.4523534.9266366.1406219 1.3416726l-6.511 2.721c-.3389966-.7038962-.7924945-1.3466332-1.342-1.902zm28.991-21.92-2.828-2.828c-.2508919-.260128-.6226186-.3646423-.9723089-.2733733s-.6229254.3641179-.7146889.7136787c-.0917634.3495609.0122249.721435.2719978.9726946l2.828 2.829-17.807 17.808c-.4557798-.9999201-1.4332268-1.6603051-2.531-1.71-.084317-1.5266777-1.3033223-2.745683-2.83-2.83-.0505991-1.0974736-.7106952-2.0744931-1.71-2.531l17.808-17.808 1.414 1.414c.2525868.2527654.6208353.3515768.96603.259213.3451946-.0923639.6148921-.3618707.7075-.707s-.0059432-.7134476-.25853-.966213l-1.415-1.414 2.122-2.122 2.119 2.119 4.947 4.947zm.707-14.849c.5626237-.56271905 1.3257625-.87885933 2.1215-.87885933s1.5588763.31614028 2.1215.87885933l2.828 2.828c.562719.56262374.8788593 1.32576248.8788593 2.1215s-.3161403 1.55887626-.8788593 2.1215l-4.242 4.242-4.243-4.242 1.414-1.415c.2599566-.25107447.3642126-.62287789.2726972-.97250732-.0915155-.34962944-.3645604-.6226744-.7141899-.71418984-.3496294-.09151544-.7214328.01274058-.9725073.27269716l-1.414 1.414-1.414-1.414zm-32.376 37.274c.9395041.4695733 1.7015614 1.2309289 2.172 2.17l-3.733 1.56z"/></g></g></g></svg>