<?xml version="1.0" encoding="iso-8859-1"?>
<!-- Generator: Adobe Illustrator 19.0.0, SVG Export Plug-In . SVG Version: 6.00 Build 0)  -->
<svg version="1.1" id="Capa_1" xmlns="http://www.w3.org/2000/svg" xmlns:xlink="http://www.w3.org/1999/xlink" x="0px" y="0px"
	 viewBox="0 0 512 512" style="enable-background:new 0 0 512 512;" xml:space="preserve">
<path style="fill:#F25353;" d="M104,272V38c0-15.464,12.536-28,28-28h248c15.464,0,28,12.536,28,28v234H104z"/>
<polygon style="fill:#657FC9;" points="502,206 413.734,142.132 98.267,142.132 10,206 98.267,269.868 413.734,269.868 "/>
<rect x="104" y="64" style="fill:#FFFFFF;" width="302.5" height="290"/>
<polygon style="fill:#34BFE0;" points="10,206 10,502 502,502 502,206 260.084,385.461 "/>
<polygon style="fill:#8CCEEA;" points="10,502 502,502 256,324 "/>
<path d="M511.99,206c0.002-2.034-0.605-4.088-1.889-5.862c-0.641-0.885-1.403-1.629-2.242-2.236
	c0.001-0.001,0.002-0.002,0.003-0.003l-88.267-63.868c-0.51-0.369-1.046-0.676-1.596-0.937V38c0-20.953-17.047-38-38-38H132
	c-20.953,0-38,17.047-38,38v95.094c-0.55,0.26-1.085,0.567-1.596,0.936L4.138,197.898c0.001,0.001,0.002,0.002,0.002,0.003
	c-0.839,0.607-1.601,1.351-2.242,2.236c-1.284,1.775-1.891,3.829-1.889,5.864c-0.003,0-0.006,0-0.009-0.001v296
	c0,5.523,4.477,10,10,10h492c0.146,0,0.277-0.008,0.399-0.02c5.336-0.211,9.601-4.592,9.601-9.98V206
	C511.997,206,511.994,206,511.99,206z M314.52,354L492,225.579v256.842L314.52,354z M20,225.579L197.48,354L20,482.421V225.579z
	 M484.941,206L418,254.437v-96.874L484.941,206z M132,20h248c9.925,0,18,8.075,18,18v16H187.5c-5.523,0-10,4.477-10,10
	s4.477,10,10,10H398v194.909l-100.539,72.748l0,0l-35.599-25.758c-3.499-2.531-8.226-2.531-11.725,0l-35.598,25.758L114,268.909V38
	C114,28.075,122.075,20,132,20z M94,157.563v96.874L27.059,206L94,157.563z M40.879,492L256,336.343L341.211,398h-46.384
	c-5.523,0-10,4.477-10,10s4.477,10,10,10h73.923c0.032,0,0.063-0.004,0.095-0.005L396.492,438H249.667c-5.523,0-10,4.477-10,10
	s4.477,10,10,10h174.466l46.989,34H40.879z"/>
<path d="M207,438c-2.63,0-5.21,1.07-7.07,2.93S197,445.37,197,448s1.07,5.21,2.93,7.07c1.86,1.86,4.44,2.93,7.07,2.93
	s5.21-1.07,7.07-2.93S217,450.63,217,448s-1.07-5.21-2.93-7.07C212.21,439.07,209.63,438,207,438z"/>
<path d="M146.512,74h0.088c5.523,0,9.956-4.477,9.956-10s-4.521-10-10.044-10s-10,4.477-10,10S140.989,74,146.512,74z"/>
<path d="M255.974,246.057H304.5c5.523,0,10-4.477,10-10s-4.477-10-10-10h-48.526c-30.876,0-55.995-25.119-55.995-55.995v-1.01
	c0-30.876,25.119-55.995,55.995-55.995c30.875,0,55.995,25.119,55.995,55.995v16.021c0,4.954-4.03,8.984-8.984,8.984
	s-8.984-4.03-8.984-8.984v-18.096c0-22.607-18.393-41-41-41c-23.71,0-43,19.29-43,43s19.29,43,43,43h12.437c5.523,0,10-4.477,10-10
	s-4.477-10-10-10H253c-12.682,0-23-10.318-23-23s10.318-23,23-23c11.58,0,21,9.42,21,21v18.096
	c0,15.982,13.002,28.984,28.984,28.984s28.984-13.002,28.984-28.984v-16.021c0-41.904-34.091-75.995-75.995-75.995
	s-75.995,34.091-75.995,75.995v1.01C179.979,211.966,214.07,246.057,255.974,246.057z"/>
<path d="M189.979,286h131.99c5.523,0,10-4.477,10-10s-4.477-10-10-10h-131.99c-5.523,0-10,4.477-10,10S184.456,286,189.979,286z"/>
<g>
</g>
<g>
</g>
<g>
</g>
<g>
</g>
<g>
</g>
<g>
</g>
<g>
</g>
<g>
</g>
<g>
</g>
<g>
</g>
<g>
</g>
<g>
</g>
<g>
</g>
<g>
</g>
<g>
</g>
</svg>
