<svg id="Capa_1" enable-background="new 0 0 512 512" height="512" viewBox="0 0 512 512" width="512" xmlns="http://www.w3.org/2000/svg"><g><path d="m256 330h-45v167c0 8.284 6.716 15 15 15h30 30c8.284 0 15-6.716 15-15v-167z" fill="#dce7f5"/><path d="m301 497v-167h-45v182h30c8.284 0 15-6.716 15-15z" fill="#c8d6ef"/><path d="m447.177 106.758-91.084-101.763c-2.842-3.179-6.914-4.995-11.177-4.995h-88.916-88.916c-4.263 0-8.335 1.816-11.177 4.995l-91.084 101.763c-2.461 2.754-3.823 6.313-3.823 10.005v156.475c0 3.691 1.362 7.251 3.823 10.005l91.084 101.763c2.842 3.179 6.914 4.995 11.177 4.995h88.916 88.916c4.263 0 8.335-1.816 11.177-4.995l91.084-101.763c2.461-2.754 3.823-6.313 3.823-10.005v-156.475c0-3.692-1.362-7.251-3.823-10.005z" fill="#ff637b"/><path d="m356.093 385.005 91.084-101.763c2.461-2.754 3.823-6.313 3.823-10.005v-156.474c0-3.691-1.362-7.251-3.823-10.005l-91.084-101.763c-2.842-3.179-6.914-4.995-11.177-4.995h-88.916v390h88.916c4.263 0 8.335-1.816 11.177-4.995z" fill="#e63950"/><g><path d="m298.426 195 63.64-63.64c5.863-5.863 5.863-15.35 0-21.213l-21.213-21.213c-5.863-5.863-15.352-5.863-21.213 0l-63.64 63.639-63.64-63.638c-5.861-5.863-15.35-5.863-21.213 0l-21.213 21.213c-5.863 5.863-5.863 15.35 0 21.213l63.64 63.64-63.64 63.638c-5.863 5.863-5.863 15.352 0 21.215l21.213 21.213c5.863 5.863 15.352 5.863 21.213 0l63.64-63.64 63.64 63.64c5.861 5.863 15.35 5.863 21.213 0l21.213-21.213c5.863-5.863 5.863-15.352 0-21.215z" fill="#ecf7fe"/><path d="m340.853 301.066 21.213-21.213c5.863-5.863 5.863-15.352 0-21.215l-63.64-63.638 63.64-63.64c5.863-5.863 5.863-15.35 0-21.213l-21.213-21.213c-5.863-5.863-15.352-5.863-21.213 0l-63.64 63.639v84.853l63.64 63.64c5.861 5.863 15.35 5.863 21.213 0z" fill="#dce7f5"/></g></g></svg>