<svg height="512" viewBox="0 0 64 64" width="512" xmlns="http://www.w3.org/2000/svg"><path d="m12 2h40v53h-40z" fill="#ffa733"/><path d="m15 5h34v50h-34z" fill="#ffda44"/><circle cx="21" cy="34" fill="#e0e0e2" r="2"/><path d="m7 55h50v6h-50z" fill="#787680"/><path d="m21 10h22v12h-22z" fill="#2488ff"/><path d="m21 23h22a1 1 0 0 0 1-1v-12a1 1 0 0 0 -1-1h-22a1 1 0 0 0 -1 1v12a1 1 0 0 0 1 1zm1-12h20v10h-20z"/><path d="m21 37a3 3 0 1 0 -3-3 3 3 0 0 0 3 3zm0-4a1 1 0 1 1 -1 1 1 1 0 0 1 1-1z"/><path d="m58 60v-5a1 1 0 0 0 -1-1h-4v-52a1 1 0 0 0 -1-1h-40a1 1 0 0 0 -1 1v52h-4a1 1 0 0 0 -1 1v5h-4v2h60v-2zm-45-57h38v51h-1v-49a1 1 0 0 0 -1-1h-34a1 1 0 0 0 -1 1v49h-1zm35 3v48h-32v-48zm8 54h-48v-4h48z"/></svg>